<svg xmlns="http://www.w3.org/2000/svg" width="1152" height="648" viewBox="0 0 1152 648">
  <defs>
    <radialGradient id="cloth" cx="50%" cy="42%" r="78%">
      <stop offset="0%" stop-color="#1b5a33"/>
      <stop offset="100%" stop-color="#123f24"/>
    </radialGradient>
    <linearGradient id="railg" x1="0%" y1="0%" x2="0%" y2="100%">
      <stop offset="0%" stop-color="#4c3618"/>
      <stop offset="100%" stop-color="#241a11"/>
    </linearGradient>
  </defs>
  <rect x="0" y="0" width="1152" height="648" rx="22" fill="url(#railg)"/>
  <rect x="14" y="14" width="1124" height="620" rx="14" fill="#241a11" opacity="0.55"/>
  <rect x="20" y="20" width="1112" height="608" rx="10" fill="url(#cloth)"/>
  <g opacity="0.09">
  <circle cx="576.0" cy="324.0" r="103" fill="none" stroke="#f2c14a" stroke-width="2" opacity="0.18"/>
  <circle cx="576.0" cy="324.0" r="149" fill="none" stroke="#f2c14a" stroke-width="2" opacity="0.18"/>
  <circle cx="576.0" cy="324.0" r="195" fill="none" stroke="#f2c14a" stroke-width="2" opacity="0.18"/>
  <circle cx="576.0" cy="324.0" r="241" fill="none" stroke="#f2c14a" stroke-width="2" opacity="0.18"/>
  <circle cx="576.0" cy="324.0" r="287" fill="none" stroke="#f2c14a" stroke-width="2" opacity="0.18"/>
  <circle cx="576.0" cy="324.0" r="333" fill="none" stroke="#f2c14a" stroke-width="2" opacity="0.18"/>
  <polygon points="542.46,226.03 576.00,165.24 609.54,226.03" fill="#f2c14a" stroke="#f2c14a" stroke-width="4" stroke-linejoin="round"/>
  <polygon points="621.56,231.01 688.26,211.74 668.99,278.44" fill="#f2c14a" stroke="#f2c14a" stroke-width="4" stroke-linejoin="round"/>
  <polygon points="673.97,290.46 734.76,324.00 673.97,357.54" fill="#f2c14a" stroke="#f2c14a" stroke-width="4" stroke-linejoin="round"/>
  <polygon points="668.99,369.56 688.26,436.26 621.56,416.99" fill="#f2c14a" stroke="#f2c14a" stroke-width="4" stroke-linejoin="round"/>
  <polygon points="609.54,421.97 576.00,482.76 542.46,421.97" fill="#f2c14a" stroke="#f2c14a" stroke-width="4" stroke-linejoin="round"/>
  <polygon points="530.44,416.99 463.74,436.26 483.01,369.56" fill="#f2c14a" stroke="#f2c14a" stroke-width="4" stroke-linejoin="round"/>
  <polygon points="478.03,357.54 417.24,324.00 478.03,290.46" fill="#f2c14a" stroke="#f2c14a" stroke-width="4" stroke-linejoin="round"/>
  <polygon points="483.01,278.44 463.74,211.74 530.44,231.01" fill="#f2c14a" stroke="#f2c14a" stroke-width="4" stroke-linejoin="round"/>
  <circle cx="576.0" cy="324.0" r="110.16000000000001" fill="none" stroke="#f2c14a" stroke-width="5"/>
  <circle cx="576.0" cy="324.0" r="72.71" fill="none" stroke="#f2c14a" stroke-width="4" opacity="0.8"/>
  <circle cx="576.0" cy="301.97" r="33.05" fill="#f2c14a" opacity="0.30"/>
  </g>
  <rect x="20" y="20" width="1112" height="608" rx="10" fill="none"
        stroke="#f2c14a" stroke-width="3" opacity="0.45"/>
  <rect x="4" y="4" width="1144" height="640" rx="18" fill="none"
        stroke="#000000" stroke-width="3" opacity="0.35"/>
</svg>
